    <svg width="137" height="52" viewBox="0 0 137 52" fill="none" xmlns="http://www.w3.org/2000/svg">
<path fill-rule="evenodd" clip-rule="evenodd" d="M107.786 40.2607C105.341 39.0553 102.843 37.8231 100.146 37.4749C92.693 36.4972 86.1963 43.0331 78.9555 45.1091C72.1265 47.0511 65.55 40.1669 58.4155 40.033C51.5999 39.8991 44.5982 43.3947 38.1944 41.0375C34.0227 39.4973 31.2858 35.5463 27.858 32.6935C26.1309 31.2738 23.6464 30.1086 21.7731 31.3274C20.7102 32.0238 20.1788 33.3096 19.7802 34.5418C18.8502 37.3544 18.1859 40.2607 17.8006 43.1938C17.7433 43.6871 17.5836 44.1627 17.3318 44.5897C17.08 45.0166 16.7418 45.3852 16.3392 45.6716C14.8512 46.7029 13.6023 45.8189 12.6457 44.8814C9.68298 42.0018 7.9691 38.0642 6.72023 34.1266C5.57973 30.5373 4.75721 26.8531 4.26235 23.1173C3.78406 19.5547 3.63791 14.4251 6.76009 12.6974C9.76269 11.05 14.0806 12.5634 17.4419 13.2197C23.8191 14.4251 27.8049 13.9161 30.4355 9.75084C27.1056 10.796 23.5406 10.8053 20.2054 9.77763C17.0832 8.81331 14.0275 7.47399 10.7724 7.09898C7.53067 6.69718 3.90363 7.48738 1.84432 10.0455C-0.334564 12.7643 -0.201703 16.6618 0.329731 20.1172C1.84432 30.0684 5.73708 39.6312 11.5961 47.7743C12.9779 49.703 14.6785 51.6852 17.0433 51.9664C17.465 52.0303 17.8952 52.0029 18.3055 51.886C19.8334 51.4039 20.0327 49.8101 20.1921 48.4172C20.6172 44.3322 21.441 40.3009 22.6234 36.3633C22.779 35.8536 23.0649 35.3942 23.4523 35.0311C23.8396 34.668 24.315 34.414 24.8305 34.2946C25.346 34.1752 25.8836 34.1946 26.3894 34.3508C26.8951 34.507 27.3512 34.7946 27.7119 35.1847C28.1669 35.6852 28.5802 36.2228 28.9475 36.7918C30.1831 38.6535 31.0466 40.7429 32.4682 42.4706C34.2884 44.6939 36.9854 46.1671 39.8286 46.4886C46.7771 47.2922 53.5662 41.6 60.3287 43.4081C62.853 44.0778 64.9787 45.7385 67.3436 46.8904C71.7811 49.0735 77.1752 49.3815 81.7189 47.3993C85.2397 45.8591 88.3884 43.8903 91.856 42.2161C95.8684 40.2607 100.319 39.0687 104.584 40.3812L115 43.5554C115 43.5554 110.191 41.4527 107.786 40.2607Z" fill="black" fill-opacity="0.75"/>
<path fill-rule="evenodd" clip-rule="evenodd" d="M40.6634 19.9869C42.5127 16.2729 43.2976 12.062 42.8985 7.95569C42.8017 6.18372 42.2822 4.45899 41.3819 2.92088C40.6413 1.81725 39.576 0.96186 38.328 0.468839C37.08 -0.0241815 35.7088 -0.131384 34.3972 0.161545C31.7098 0.64541 29.4481 2.48933 27.5722 4.34632C25.8826 6.02023 23.7007 8.50494 21 7.64183C21.1863 7.69414 21.5056 8.21724 21.7051 8.36109C23.4346 9.51191 25.683 8.37417 27.3327 7.68107C29.6343 6.70026 31.3107 5.66714 33.4659 4.43786C34.0386 4.14721 34.6659 3.97519 35.3089 3.93245C35.952 3.88971 36.5971 3.97716 37.2044 4.18939C39.8386 5.06558 40.4107 8.28263 40.7699 10.5581C41.2754 13.6967 41.0626 16.8745 40.6634 19.9869Z" fill="#3B82F6"/>
<path d="M54.5713 14V3.81818H58.9861C59.7616 3.81818 60.4129 3.92259 60.9399 4.13139C61.4702 4.3402 61.8696 4.63518 62.1381 5.01633C62.4098 5.39749 62.5457 5.84659 62.5457 6.36364C62.5457 6.73816 62.4629 7.07954 62.2971 7.38778C62.1347 7.69602 61.906 7.95455 61.6111 8.16335C61.3161 8.36884 60.9714 8.51136 60.577 8.59091V8.69034C61.0145 8.70691 61.4122 8.81794 61.7702 9.02344C62.1281 9.22562 62.4131 9.50568 62.6253 9.86364C62.8374 10.2183 62.9434 10.6359 62.9434 11.1165C62.9434 11.6733 62.7976 12.1688 62.5059 12.603C62.2176 13.0372 61.8066 13.3786 61.273 13.6271C60.7394 13.8757 60.103 14 59.3639 14H54.5713ZM57.3355 11.7926H58.6281C59.0921 11.7926 59.4401 11.7064 59.6721 11.5341C59.9041 11.3584 60.0202 11.0999 60.0202 10.7585C60.0202 10.5199 59.9655 10.3177 59.8561 10.152C59.7467 9.98627 59.5909 9.86032 59.3888 9.77415C59.1899 9.68797 58.9496 9.64489 58.6679 9.64489H57.3355V11.7926ZM57.3355 7.93466H58.469C58.711 7.93466 58.9247 7.89654 59.1104 7.82031C59.296 7.74408 59.4401 7.63471 59.5429 7.49219C59.6489 7.34635 59.702 7.16903 59.702 6.96023C59.702 6.64536 59.5893 6.40507 59.3639 6.23935C59.1385 6.07031 58.8535 5.9858 58.5088 5.9858H57.3355V7.93466ZM63.4026 14V6.36364H66.0674V7.81534H66.1469C66.2861 7.27841 66.5066 6.88565 66.8082 6.63707C67.1131 6.38849 67.4694 6.2642 67.8771 6.2642C67.9964 6.2642 68.114 6.27415 68.23 6.29403C68.3494 6.31061 68.4637 6.33546 68.5731 6.36861V8.71023C68.4372 8.66383 68.2698 8.62902 68.0709 8.60582C67.8721 8.58262 67.7014 8.57102 67.5589 8.57102C67.2904 8.57102 67.0485 8.63234 66.833 8.75497C66.6209 8.87429 66.4535 9.04332 66.3309 9.26207C66.2083 9.47751 66.1469 9.73106 66.1469 10.0227V14H63.4026ZM68.9129 14V6.36364H71.6573V14H68.9129ZM70.2851 5.56818C69.9139 5.56818 69.5957 5.44555 69.3306 5.20028C69.0654 4.95502 68.9328 4.66004 68.9328 4.31534C68.9328 3.97064 69.0654 3.67566 69.3306 3.4304C69.5957 3.18513 69.9139 3.0625 70.2851 3.0625C70.6596 3.0625 70.9778 3.18513 71.2396 3.4304C71.5048 3.67566 71.6374 3.97064 71.6374 4.31534C71.6374 4.66004 71.5048 4.95502 71.2396 5.20028C70.9778 5.44555 70.6596 5.56818 70.2851 5.56818ZM76.1745 17.0227C75.4089 17.0227 74.7526 16.9134 74.2057 16.6946C73.6622 16.4792 73.2396 16.1809 72.938 15.7997C72.6397 15.4219 72.4723 14.9877 72.4359 14.4972H75.0807C75.1073 14.6596 75.1735 14.7905 75.2796 14.8899C75.3857 14.9893 75.5216 15.0606 75.6873 15.1037C75.8563 15.1501 76.0452 15.1733 76.254 15.1733C76.6087 15.1733 76.902 15.0871 77.134 14.9148C77.3693 14.7424 77.487 14.4309 77.487 13.9801V12.6875H77.4074C77.308 12.946 77.1556 13.1664 76.9501 13.3487C76.7446 13.5277 76.4976 13.6652 76.2093 13.7614C75.9209 13.8542 75.6044 13.9006 75.2597 13.9006C74.7162 13.9006 74.2157 13.7746 73.7583 13.5227C73.3042 13.2708 72.9396 12.8714 72.6645 12.3246C72.3928 11.7777 72.2569 11.0634 72.2569 10.1818C72.2569 9.26042 72.3994 8.51136 72.6844 7.93466C72.9728 7.35795 73.344 6.93537 73.7981 6.6669C74.2555 6.39844 74.736 6.2642 75.2398 6.2642C75.6177 6.2642 75.9491 6.33049 76.2342 6.46307C76.5192 6.59233 76.7578 6.76633 76.9501 6.98508C77.1423 7.20052 77.2881 7.4375 77.3876 7.69602H77.4472V6.36364H80.1915V13.9801C80.1915 14.6264 80.0242 15.175 79.6894 15.6257C79.358 16.0798 78.8906 16.4261 78.2874 16.6648C77.6842 16.9034 76.9799 17.0227 76.1745 17.0227ZM76.2739 11.9517C76.5258 11.9517 76.7413 11.8821 76.9202 11.7429C77.1025 11.6004 77.2417 11.3982 77.3378 11.1364C77.4373 10.8712 77.487 10.553 77.487 10.1818C77.487 9.80398 77.4373 9.48082 77.3378 9.21236C77.2417 8.94058 77.1025 8.73343 76.9202 8.59091C76.7413 8.44508 76.5258 8.37216 76.2739 8.37216C76.022 8.37216 75.8066 8.44508 75.6276 8.59091C75.452 8.73343 75.3161 8.94058 75.2199 9.21236C75.1271 9.48082 75.0807 9.80398 75.0807 10.1818C75.0807 10.5597 75.1271 10.8812 75.2199 11.1463C75.3161 11.4081 75.452 11.6087 75.6276 11.7479C75.8066 11.8838 76.022 11.9517 76.2739 11.9517ZM83.7716 9.70455V14H81.0273V3.81818H83.6722V7.81534H83.7517C83.9241 7.32812 84.2108 6.94863 84.6118 6.67685C85.0129 6.40175 85.4951 6.2642 86.0586 6.2642C86.5988 6.2642 87.0678 6.38684 87.4655 6.6321C87.8666 6.87737 88.1765 7.21544 88.3952 7.64631C88.6173 8.07718 88.7266 8.57102 88.7233 9.12784V14H85.979V9.70455C85.9823 9.3267 85.8879 9.03007 85.6956 8.81463C85.5067 8.5992 85.2366 8.49148 84.8853 8.49148C84.6632 8.49148 84.4677 8.54119 84.2986 8.64062C84.1329 8.73674 84.0036 8.87595 83.9108 9.05824C83.8213 9.23722 83.7749 9.45265 83.7716 9.70455ZM94.0721 6.36364V8.35227H89.0408V6.36364H94.0721ZM90.0153 4.53409H92.7596V11.544C92.7596 11.6501 92.7778 11.7396 92.8143 11.8125C92.8507 11.8821 92.9071 11.9351 92.9833 11.9716C93.0595 12.0047 93.1573 12.0213 93.2766 12.0213C93.3595 12.0213 93.4556 12.0114 93.565 11.9915C93.6777 11.9716 93.7605 11.955 93.8135 11.9418L94.2113 13.8707C94.0886 13.9072 93.913 13.9519 93.6843 14.005C93.4589 14.058 93.1904 14.0928 92.8789 14.1094C92.2492 14.1425 91.7205 14.0779 91.293 13.9155C90.8654 13.7498 90.5439 13.4896 90.3285 13.1349C90.113 12.7803 90.0086 12.3362 90.0153 11.8026V4.53409Z" fill="#3B82F6"/>
<path d="M102.31 7C102.283 6.66856 102.159 6.41004 101.937 6.22443C101.718 6.03883 101.385 5.94602 100.938 5.94602C100.653 5.94602 100.419 5.98082 100.237 6.05043C100.058 6.11671 99.9251 6.20786 99.839 6.32386C99.7528 6.43987 99.708 6.57244 99.7047 6.72159C99.6981 6.84422 99.7197 6.95526 99.7694 7.05469C99.8224 7.1508 99.9053 7.23864 100.018 7.31818C100.131 7.39441 100.275 7.46401 100.45 7.52699C100.626 7.58996 100.835 7.64631 101.077 7.69602L101.912 7.875C102.476 7.99432 102.958 8.15175 103.359 8.3473C103.76 8.54285 104.088 8.7732 104.343 9.03835C104.598 9.30019 104.786 9.59517 104.905 9.9233C105.028 10.2514 105.091 10.6094 105.094 10.9972C105.091 11.6667 104.923 12.2334 104.592 12.6974C104.26 13.1615 103.786 13.5144 103.17 13.7564C102.557 13.9983 101.819 14.1193 100.958 14.1193C100.073 14.1193 99.3004 13.9884 98.6408 13.7266C97.9846 13.4647 97.4741 13.062 97.1096 12.5185C96.7483 11.9716 96.566 11.2723 96.5627 10.4205H99.1877C99.2043 10.732 99.2822 10.9938 99.4214 11.206C99.5606 11.4181 99.7561 11.5788 100.008 11.6882C100.263 11.7976 100.566 11.8523 100.918 11.8523C101.213 11.8523 101.46 11.8158 101.659 11.7429C101.857 11.67 102.008 11.5689 102.111 11.4396C102.214 11.3104 102.267 11.1629 102.27 10.9972C102.267 10.8414 102.215 10.7055 102.116 10.5895C102.02 10.4702 101.861 10.3641 101.639 10.2713C101.417 10.1752 101.117 10.0857 100.739 10.0028L99.7246 9.78409C98.8231 9.58854 98.1122 9.26207 97.5918 8.80469C97.0748 8.34399 96.8179 7.71591 96.8212 6.92045C96.8179 6.27415 96.9902 5.70904 97.3383 5.22514C97.6896 4.73793 98.1751 4.35843 98.7949 4.08665C99.418 3.81487 100.132 3.67898 100.938 3.67898C101.76 3.67898 102.471 3.81652 103.071 4.09162C103.67 4.36671 104.133 4.7545 104.458 5.25497C104.786 5.75213 104.951 6.33381 104.955 7H102.31ZM105.625 14V6.36364H108.23V7.81534H108.31C108.469 7.33807 108.741 6.96023 109.125 6.68182C109.51 6.40341 109.967 6.2642 110.497 6.2642C111.034 6.2642 111.497 6.40672 111.884 6.69176C112.272 6.97348 112.506 7.34801 112.585 7.81534H112.665C112.794 7.34801 113.069 6.97348 113.49 6.69176C113.911 6.40672 114.405 6.2642 114.972 6.2642C115.704 6.2642 116.298 6.49953 116.752 6.97017C117.209 7.44081 117.438 8.06723 117.438 8.84943V14H114.693V9.54545C114.693 9.2107 114.609 8.94886 114.44 8.75994C114.271 8.56771 114.044 8.47159 113.759 8.47159C113.477 8.47159 113.253 8.56771 113.088 8.75994C112.925 8.94886 112.844 9.2107 112.844 9.54545V14H110.219V9.54545C110.219 9.2107 110.134 8.94886 109.965 8.75994C109.796 8.56771 109.569 8.47159 109.284 8.47159C109.095 8.47159 108.933 8.51468 108.797 8.60085C108.661 8.68703 108.555 8.81132 108.479 8.97372C108.406 9.13281 108.37 9.32339 108.37 9.54545V14H105.625ZM118.231 14V6.36364H120.976V14H118.231ZM119.603 5.56818C119.232 5.56818 118.914 5.44555 118.649 5.20028C118.384 4.95502 118.251 4.66004 118.251 4.31534C118.251 3.97064 118.384 3.67566 118.649 3.4304C118.914 3.18513 119.232 3.0625 119.603 3.0625C119.978 3.0625 120.296 3.18513 120.558 3.4304C120.823 3.67566 120.956 3.97064 120.956 4.31534C120.956 4.66004 120.823 4.95502 120.558 5.20028C120.296 5.44555 119.978 5.56818 119.603 5.56818ZM124.558 3.81818V14H121.814V3.81818H124.558ZM129.055 14.1392C128.24 14.1392 127.537 13.9834 126.948 13.6719C126.361 13.357 125.908 12.9062 125.59 12.3196C125.275 11.7296 125.118 11.0237 125.118 10.2017C125.118 9.41288 125.277 8.72348 125.595 8.13352C125.913 7.54356 126.363 7.08452 126.943 6.75639C127.523 6.42827 128.207 6.2642 128.996 6.2642C129.573 6.2642 130.095 6.35369 130.562 6.53267C131.029 6.71165 131.429 6.97183 131.76 7.31321C132.091 7.65128 132.347 8.06226 132.526 8.54616C132.705 9.03007 132.794 9.57528 132.794 10.1818V10.8182H125.973V9.30682H130.269C130.265 9.08807 130.209 8.89583 130.099 8.73011C129.993 8.56108 129.849 8.43016 129.667 8.33736C129.488 8.24124 129.284 8.19318 129.055 8.19318C128.833 8.19318 128.63 8.24124 128.444 8.33736C128.258 8.43016 128.109 8.55942 127.997 8.72514C127.887 8.89086 127.829 9.08475 127.823 9.30682V10.9375C127.823 11.1828 127.874 11.4015 127.977 11.5938C128.079 11.786 128.227 11.9368 128.419 12.0462C128.611 12.1555 128.843 12.2102 129.115 12.2102C129.304 12.2102 129.476 12.1837 129.632 12.1307C129.791 12.0777 129.927 12.0014 130.04 11.902C130.153 11.7992 130.235 11.6766 130.288 11.5341H132.794C132.708 12.0644 132.504 12.5251 132.183 12.9162C131.861 13.304 131.435 13.6056 130.905 13.821C130.378 14.0331 129.761 14.1392 129.055 14.1392Z" fill="black"/>
<path d="M58.4889 31H54.5713V20.8182H58.4491C59.4965 20.8182 60.4013 21.022 61.1636 21.4297C61.9292 21.834 62.5192 22.4174 62.9335 23.1797C63.3511 23.9387 63.5599 24.8485 63.5599 25.9091C63.5599 26.9697 63.3528 27.8812 62.9385 28.6435C62.5242 29.4025 61.9375 29.9858 61.1785 30.3935C60.4195 30.7978 59.523 31 58.4889 31ZM57.3355 28.6534H58.3895C58.8933 28.6534 59.3225 28.5722 59.6771 28.4098C60.0351 28.2474 60.3068 27.9673 60.4925 27.5696C60.6814 27.1719 60.7758 26.6184 60.7758 25.9091C60.7758 25.1998 60.6797 24.6463 60.4875 24.2486C60.2986 23.8509 60.0202 23.5708 59.6523 23.4084C59.2877 23.246 58.8402 23.1648 58.3099 23.1648H57.3355V28.6534ZM67.9777 31.1392C67.1624 31.1392 66.4597 30.9834 65.8698 30.6719C65.2831 30.357 64.8307 29.9062 64.5125 29.3196C64.1977 28.7296 64.0402 28.0237 64.0402 27.2017C64.0402 26.4129 64.1993 25.7235 64.5175 25.1335C64.8357 24.5436 65.2848 24.0845 65.8648 23.7564C66.4448 23.4283 67.1292 23.2642 67.9181 23.2642C68.4948 23.2642 69.0168 23.3537 69.4841 23.5327C69.9515 23.7116 70.3508 23.9718 70.6823 24.3132C71.0137 24.6513 71.2689 25.0623 71.4479 25.5462C71.6269 26.0301 71.7164 26.5753 71.7164 27.1818V27.8182H64.8953V26.3068H69.1908C69.1875 26.0881 69.1311 25.8958 69.0218 25.7301C68.9157 25.5611 68.7715 25.4302 68.5892 25.3374C68.4103 25.2412 68.2064 25.1932 67.9777 25.1932C67.7557 25.1932 67.5518 25.2412 67.3662 25.3374C67.1806 25.4302 67.0315 25.5594 66.9188 25.7251C66.8094 25.8909 66.7514 26.0848 66.7448 26.3068V27.9375C66.7448 28.1828 66.7961 28.4015 66.8989 28.5938C67.0016 28.786 67.1491 28.9368 67.3414 29.0462C67.5336 29.1555 67.7656 29.2102 68.0374 29.2102C68.2263 29.2102 68.3987 29.1837 68.5544 29.1307C68.7135 29.0777 68.8494 29.0014 68.9621 28.902C69.0748 28.7992 69.1577 28.6766 69.2107 28.5341H71.7164C71.6302 29.0644 71.4264 29.5251 71.1049 29.9162C70.7834 30.304 70.3575 30.6056 69.8272 30.821C69.3002 31.0331 68.6837 31.1392 67.9777 31.1392ZM75.0205 26.7045V31H72.2762V23.3636H74.8813V24.8153H74.9609C75.1266 24.3314 75.4183 23.9519 75.8359 23.6768C76.2568 23.4018 76.7473 23.2642 77.3075 23.2642C77.8477 23.2642 78.3167 23.3885 78.7144 23.6371C79.1155 23.8823 79.4254 24.2204 79.6441 24.6513C79.8662 25.0821 79.9756 25.5743 79.9722 26.1278V31H77.2279V26.7045C77.2312 26.3267 77.1351 26.0301 76.9396 25.8146C76.7473 25.5992 76.4789 25.4915 76.1342 25.4915C75.9088 25.4915 75.7116 25.5412 75.5426 25.6406C75.3768 25.7367 75.2492 25.8759 75.1597 26.0582C75.0703 26.2372 75.0238 26.4527 75.0205 26.7045ZM85.321 23.3636V25.3523H80.2897V23.3636H85.321ZM81.2642 21.5341H84.0085V28.544C84.0085 28.6501 84.0267 28.7396 84.0632 28.8125C84.0996 28.8821 84.156 28.9351 84.2322 28.9716C84.3084 29.0047 84.4062 29.0213 84.5255 29.0213C84.6084 29.0213 84.7045 29.0114 84.8139 28.9915C84.9266 28.9716 85.0094 28.955 85.0625 28.9418L85.4602 30.8707C85.3375 30.9072 85.1619 30.9519 84.9332 31.005C84.7078 31.058 84.4393 31.0928 84.1278 31.1094C83.4981 31.1425 82.9694 31.0779 82.5419 30.9155C82.1143 30.7498 81.7928 30.4896 81.5774 30.1349C81.3619 29.7803 81.2575 29.3362 81.2642 28.8026V21.5341ZM88.0087 31.1193C87.5215 31.1193 87.0906 31.0398 86.7161 30.8807C86.3448 30.7183 86.0532 30.473 85.8411 30.1449C85.6289 29.8168 85.5229 29.3991 85.5229 28.892C85.5229 28.4744 85.5941 28.1181 85.7367 27.8232C85.8792 27.5249 86.078 27.2812 86.3332 27.0923C86.5885 26.9034 86.8851 26.7592 87.2232 26.6598C87.5645 26.5604 87.9324 26.4957 88.3269 26.4659C88.7544 26.4328 89.0974 26.393 89.356 26.3466C89.6178 26.2969 89.8067 26.2289 89.9227 26.1428C90.0387 26.0533 90.0967 25.9356 90.0967 25.7898V25.7699C90.0967 25.571 90.0205 25.4186 89.868 25.3125C89.7156 25.2064 89.52 25.1534 89.2814 25.1534C89.0196 25.1534 88.8058 25.2114 88.6401 25.3274C88.4777 25.4401 88.3799 25.6141 88.3467 25.8494H85.8212C85.8543 25.3854 86.0018 24.9579 86.2636 24.5668C86.5288 24.1723 86.9149 23.8575 87.422 23.6222C87.9291 23.3835 88.5622 23.2642 89.3212 23.2642C89.868 23.2642 90.3586 23.3288 90.7928 23.4581C91.2269 23.584 91.5965 23.7614 91.9014 23.9901C92.2063 24.2154 92.4384 24.4806 92.5974 24.7855C92.7599 25.0871 92.8411 25.4152 92.8411 25.7699V31H90.2757V29.9261H90.2161C90.0636 30.2112 89.878 30.4415 89.6592 30.6172C89.4438 30.7929 89.1969 30.9205 88.9185 31C88.6434 31.0795 88.3401 31.1193 88.0087 31.1193ZM88.9036 29.3892C89.1124 29.3892 89.3079 29.3461 89.4902 29.2599C89.6758 29.1738 89.8266 29.0495 89.9426 28.8871C90.0586 28.7247 90.1166 28.5275 90.1166 28.2955V27.6591C90.0437 27.6889 89.9658 27.7171 89.883 27.7436C89.8034 27.7701 89.7172 27.795 89.6244 27.8182C89.5349 27.8414 89.4388 27.8629 89.3361 27.8828C89.2367 27.9027 89.1322 27.9209 89.0229 27.9375C88.8108 27.9706 88.6367 28.0253 88.5009 28.1016C88.3683 28.1745 88.2688 28.2656 88.2026 28.375C88.1396 28.4811 88.1081 28.6004 88.1081 28.733C88.1081 28.9451 88.1827 29.1075 88.3318 29.2202C88.481 29.3329 88.6715 29.3892 88.9036 29.3892ZM96.3366 20.8182V31H93.5923V20.8182H96.3366ZM108.87 24.6364H106.066C106.046 24.4044 105.993 24.1939 105.907 24.005C105.824 23.8161 105.708 23.6536 105.559 23.5178C105.413 23.3786 105.236 23.2725 105.027 23.1996C104.818 23.1233 104.581 23.0852 104.316 23.0852C103.852 23.0852 103.459 23.1979 103.138 23.4233C102.819 23.6487 102.577 23.9718 102.412 24.3928C102.249 24.8137 102.168 25.3191 102.168 25.9091C102.168 26.5322 102.251 27.0542 102.417 27.4751C102.586 27.8928 102.829 28.2076 103.148 28.4197C103.466 28.6286 103.849 28.733 104.296 28.733C104.551 28.733 104.78 28.7015 104.982 28.6385C105.184 28.5722 105.36 28.4777 105.509 28.3551C105.658 28.2325 105.779 28.085 105.872 27.9126C105.968 27.737 106.033 27.5398 106.066 27.321L108.87 27.3409C108.837 27.7718 108.716 28.2109 108.507 28.6584C108.298 29.1025 108.001 29.5135 107.617 29.8913C107.236 30.2659 106.764 30.5675 106.2 30.7962C105.637 31.0249 104.982 31.1392 104.236 31.1392C103.302 31.1392 102.463 30.9387 101.721 30.5376C100.982 30.1366 100.397 29.5466 99.9657 28.7678C99.5382 27.9889 99.3244 27.036 99.3244 25.9091C99.3244 24.7756 99.5432 23.821 99.9807 23.0455C100.418 22.2666 101.008 21.6783 101.751 21.2805C102.493 20.8795 103.322 20.679 104.236 20.679C104.879 20.679 105.471 20.7668 106.011 20.9425C106.551 21.1181 107.025 21.375 107.433 21.7131C107.841 22.0478 108.169 22.4605 108.417 22.951C108.666 23.4415 108.817 24.0033 108.87 24.6364ZM112.348 20.8182V31H109.604V20.8182H112.348ZM113.186 31V23.3636H115.931V31H113.186ZM114.558 22.5682C114.187 22.5682 113.869 22.4455 113.604 22.2003C113.339 21.955 113.206 21.66 113.206 21.3153C113.206 20.9706 113.339 20.6757 113.604 20.4304C113.869 20.1851 114.187 20.0625 114.558 20.0625C114.933 20.0625 115.251 20.1851 115.513 20.4304C115.778 20.6757 115.911 20.9706 115.911 21.3153C115.911 21.66 115.778 21.955 115.513 22.2003C115.251 22.4455 114.933 22.5682 114.558 22.5682ZM119.513 26.7045V31H116.769V23.3636H119.374V24.8153H119.454C119.619 24.3314 119.911 23.9519 120.329 23.6768C120.749 23.4018 121.24 23.2642 121.8 23.2642C122.34 23.2642 122.809 23.3885 123.207 23.6371C123.608 23.8823 123.918 24.2204 124.137 24.6513C124.359 25.0821 124.468 25.5743 124.465 26.1278V31H121.721V26.7045C121.724 26.3267 121.628 26.0301 121.432 25.8146C121.24 25.5992 120.972 25.4915 120.627 25.4915C120.401 25.4915 120.204 25.5412 120.035 25.6406C119.869 25.7367 119.742 25.8759 119.652 26.0582C119.563 26.2372 119.517 26.4527 119.513 26.7045ZM125.26 31V23.3636H128.004V31H125.26ZM126.632 22.5682C126.261 22.5682 125.942 22.4455 125.677 22.2003C125.412 21.955 125.28 21.66 125.28 21.3153C125.28 20.9706 125.412 20.6757 125.677 20.4304C125.942 20.1851 126.261 20.0625 126.632 20.0625C127.006 20.0625 127.325 20.1851 127.586 20.4304C127.852 20.6757 127.984 20.9706 127.984 21.3153C127.984 21.66 127.852 21.955 127.586 22.2003C127.325 22.4455 127.006 22.5682 126.632 22.5682ZM132.521 31.1392C131.693 31.1392 130.983 30.9751 130.393 30.647C129.803 30.3156 129.351 29.8549 129.036 29.2649C128.721 28.6716 128.564 27.9839 128.564 27.2017C128.564 26.4195 128.721 25.7334 129.036 25.1435C129.351 24.5502 129.803 24.0895 130.393 23.7614C130.983 23.4299 131.693 23.2642 132.521 23.2642C133.27 23.2642 133.918 23.4001 134.465 23.6719C135.015 23.9403 135.441 24.3215 135.743 24.8153C136.044 25.3059 136.197 25.8826 136.2 26.5455H133.655C133.618 26.1444 133.502 25.8395 133.307 25.6307C133.114 25.4186 132.866 25.3125 132.561 25.3125C132.322 25.3125 132.114 25.3821 131.935 25.5213C131.756 25.6572 131.616 25.8643 131.517 26.1428C131.418 26.4179 131.368 26.7642 131.368 27.1818C131.368 27.5994 131.418 27.9474 131.517 28.2259C131.616 28.5009 131.756 28.7081 131.935 28.8473C132.114 28.9832 132.322 29.0511 132.561 29.0511C132.763 29.0511 132.942 29.0047 133.098 28.9119C133.254 28.8158 133.38 28.6766 133.476 28.4943C133.575 28.3087 133.635 28.0833 133.655 27.8182H136.2C136.19 28.491 136.036 29.0777 135.738 29.5781C135.44 30.0753 135.017 30.4598 134.47 30.7315C133.927 31.0033 133.277 31.1392 132.521 31.1392Z" fill="black" fill-opacity="0.75"/>
</svg>