<svg width="193" height="71" viewBox="0 0 193 71" fill="none" xmlns="http://www.w3.org/2000/svg">
<path fill-rule="evenodd" clip-rule="evenodd" d="M139.573 55.6502C136.407 54.0964 133.173 52.508 129.681 52.0591C120.029 50.7988 111.616 59.2241 102.24 61.9001C93.3974 64.4035 84.8814 55.5294 75.6429 55.3567C66.8172 55.1841 57.7507 59.6902 49.4584 56.6516C44.0563 54.6661 40.5123 49.573 36.0737 45.8955C33.8371 44.0655 30.62 42.5634 28.1942 44.1345C26.8179 45.0323 26.1297 46.6897 25.6136 48.2781C24.4093 51.9037 23.5491 55.6502 23.0502 59.4312C22.976 60.0672 22.7692 60.6803 22.4431 61.2306C22.117 61.7809 21.6791 62.2561 21.1578 62.6253C19.2309 63.9547 17.6138 62.8152 16.3751 61.6066C12.5386 57.8947 10.3193 52.8188 8.7021 47.7429C7.22525 43.116 6.16016 38.3668 5.51936 33.5511C4.90001 28.9586 4.71077 22.3462 8.75371 20.119C12.6418 17.9954 18.2331 19.9463 22.5857 20.7923C30.8436 22.3462 36.0048 21.6901 39.4112 16.3207C35.0993 17.668 30.483 17.68 26.1642 16.3552C22.1212 15.1122 18.1643 13.3857 13.9493 12.9022C9.75154 12.3843 5.05485 13.4029 2.38823 16.7005C-0.43323 20.2053 -0.261187 25.2294 0.426973 29.6838C2.38823 42.5116 7.429 54.8388 15.016 65.3359C16.8052 67.822 19.0073 70.3772 22.0696 70.7398C22.6155 70.8221 23.1727 70.7868 23.704 70.6362C25.6824 70.0146 25.9405 67.9601 26.147 66.1646C26.6975 60.8988 27.7641 55.702 29.2953 50.6261C29.4968 49.9692 29.8669 49.3769 30.3686 48.9089C30.8702 48.4409 31.4857 48.1134 32.1532 47.9595C32.8208 47.8056 33.517 47.8306 34.1719 48.0319C34.8268 48.2333 35.4174 48.604 35.8844 49.1068C36.4736 49.752 37.0088 50.445 37.4844 51.1786C39.0844 53.5784 40.2026 56.2718 42.0434 58.4989C44.4004 61.3649 47.8928 63.2641 51.5745 63.6784C60.5722 64.7143 69.3634 57.3767 78.1202 59.7075C81.389 60.5707 84.1416 62.7116 87.2039 64.1964C92.9501 67.0106 99.9349 67.4076 105.819 64.8524C110.378 62.867 114.455 60.329 118.945 58.1709C124.141 55.6502 129.904 54.1136 135.427 55.8056L148.915 59.8974C148.915 59.8974 142.687 57.1868 139.573 55.6502Z" fill="black" fill-opacity="0.75"/>
<path fill-rule="evenodd" clip-rule="evenodd" d="M52.8477 29.166C55.239 24.2627 56.2541 18.7034 55.738 13.2822C55.6128 10.9429 54.9409 8.66585 53.7767 6.63523C52.8191 5.1782 51.4414 4.04891 49.8276 3.39802C48.2138 2.74713 46.4406 2.6056 44.7446 2.99233C41.2694 3.63113 38.3447 6.06549 35.9189 8.51711C33.734 10.727 30.9126 14.0074 27.4202 12.8679C27.661 12.9369 28.0739 13.6275 28.332 13.8174C30.5685 15.3368 33.476 13.8347 35.6093 12.9197C38.5856 11.6248 40.7533 10.2609 43.5403 8.63796C44.2809 8.25424 45.092 8.02713 45.9236 7.97071C46.7551 7.91428 47.5894 8.02974 48.3746 8.30993C51.781 9.46668 52.5208 13.7139 52.9853 16.718C53.6391 20.8615 53.3638 25.0569 52.8477 29.166Z" fill="white"/>
<path d="M74.8523 19V4.45455H81.1591C82.2671 4.45455 83.1975 4.60369 83.9503 4.90199C84.7079 5.20028 85.2784 5.62169 85.662 6.16619C86.0502 6.7107 86.2443 7.35227 86.2443 8.09091C86.2443 8.62595 86.126 9.11364 85.8892 9.55398C85.6572 9.99432 85.3305 10.3636 84.9091 10.6619C84.4877 10.9555 83.9953 11.1591 83.4318 11.2727V11.4148C84.0568 11.4384 84.625 11.5971 85.1364 11.8906C85.6477 12.1795 86.0549 12.5795 86.358 13.0909C86.661 13.5975 86.8125 14.1941 86.8125 14.8807C86.8125 15.6761 86.6042 16.384 86.1875 17.0043C85.7756 17.6245 85.1885 18.1122 84.4262 18.4673C83.6638 18.8224 82.7548 19 81.6989 19H74.8523ZM78.8012 15.8466H80.6477C81.3106 15.8466 81.8078 15.7235 82.1392 15.4773C82.4707 15.2263 82.6364 14.857 82.6364 14.3693C82.6364 14.0284 82.5583 13.7396 82.402 13.5028C82.2458 13.2661 82.0232 13.0862 81.7344 12.9631C81.4503 12.84 81.107 12.7784 80.7046 12.7784H78.8012V15.8466ZM78.8012 10.3352H80.4205C80.7661 10.3352 81.0715 10.2808 81.3367 10.1719C81.6018 10.063 81.8078 9.90672 81.9546 9.70312C82.1061 9.49479 82.1818 9.24148 82.1818 8.94318C82.1818 8.49337 82.0209 8.15009 81.6989 7.91335C81.3769 7.67188 80.9697 7.55114 80.4773 7.55114H78.8012V10.3352ZM87.4685 19V8.09091H91.2753V10.1648H91.3889C91.5878 9.39773 91.9027 8.83665 92.3335 8.48153C92.7692 8.12642 93.2781 7.94886 93.8605 7.94886C94.031 7.94886 94.1991 7.96307 94.3648 7.99148C94.5352 8.01515 94.6986 8.05066 94.8549 8.09801V11.4432C94.6607 11.3769 94.4216 11.3272 94.1375 11.294C93.8534 11.2609 93.6096 11.2443 93.406 11.2443C93.0225 11.2443 92.6768 11.3319 92.3691 11.5071C92.066 11.6776 91.8269 11.919 91.6517 12.2315C91.4765 12.5393 91.3889 12.9015 91.3889 13.3182V19H87.4685ZM95.3404 19V8.09091H99.2608V19H95.3404ZM97.3006 6.95455C96.7703 6.95455 96.3157 6.77936 95.937 6.42898C95.5582 6.0786 95.3688 5.6572 95.3688 5.16477C95.3688 4.67235 95.5582 4.25095 95.937 3.90057C96.3157 3.55019 96.7703 3.375 97.3006 3.375C97.8356 3.375 98.2902 3.55019 98.6642 3.90057C99.043 4.25095 99.2324 4.67235 99.2324 5.16477C99.2324 5.6572 99.043 6.0786 98.6642 6.42898C98.2902 6.77936 97.8356 6.95455 97.3006 6.95455ZM105.714 23.3182C104.62 23.3182 103.683 23.1619 102.902 22.8494C102.125 22.5417 101.521 22.1155 101.09 21.571C100.664 21.0313 100.425 20.411 100.373 19.7102H104.152C104.189 19.9422 104.284 20.1293 104.436 20.2713C104.587 20.4134 104.781 20.5152 105.018 20.5767C105.259 20.643 105.529 20.6761 105.828 20.6761C106.334 20.6761 106.753 20.553 107.085 20.3068C107.421 20.0606 107.589 19.6155 107.589 18.9716V17.125H107.475C107.333 17.4943 107.116 17.8092 106.822 18.0696C106.528 18.3253 106.176 18.5218 105.764 18.6591C105.352 18.7917 104.9 18.858 104.407 18.858C103.631 18.858 102.916 18.678 102.262 18.3182C101.614 17.9583 101.093 17.3878 100.7 16.6065C100.312 15.8253 100.117 14.8049 100.117 13.5455C100.117 12.2292 100.321 11.1591 100.728 10.3352C101.14 9.51136 101.67 8.90767 102.319 8.52415C102.973 8.14062 103.659 7.94886 104.379 7.94886C104.919 7.94886 105.392 8.04356 105.799 8.23295C106.206 8.41761 106.547 8.66619 106.822 8.97869C107.097 9.28646 107.305 9.625 107.447 9.99432H107.532V8.09091H111.453V18.9716C111.453 19.8949 111.214 20.6785 110.735 21.3224C110.262 21.9711 109.594 22.4659 108.732 22.8068C107.871 23.1477 106.865 23.3182 105.714 23.3182ZM105.856 16.0739C106.216 16.0739 106.524 15.9744 106.779 15.7756C107.04 15.572 107.239 15.2831 107.376 14.9091C107.518 14.5303 107.589 14.0758 107.589 13.5455C107.589 13.0057 107.518 12.544 107.376 12.1605C107.239 11.7723 107.04 11.4763 106.779 11.2727C106.524 11.0644 106.216 10.9602 105.856 10.9602C105.496 10.9602 105.188 11.0644 104.933 11.2727C104.682 11.4763 104.488 11.7723 104.35 12.1605C104.218 12.544 104.152 13.0057 104.152 13.5455C104.152 14.0852 104.218 14.5445 104.35 14.9233C104.488 15.2973 104.682 15.5838 104.933 15.7827C105.188 15.9768 105.496 16.0739 105.856 16.0739ZM116.567 12.8636V19H112.647V4.45455H116.425V10.1648H116.539C116.785 9.46875 117.194 8.92661 117.767 8.53835C118.34 8.14536 119.029 7.94886 119.834 7.94886C120.606 7.94886 121.276 8.12405 121.844 8.47443C122.417 8.82481 122.86 9.30777 123.172 9.9233C123.489 10.5388 123.646 11.2443 123.641 12.0398V19H119.72V12.8636C119.725 12.3239 119.59 11.9001 119.316 11.5923C119.046 11.2846 118.66 11.1307 118.158 11.1307C117.841 11.1307 117.561 11.2017 117.32 11.3438C117.083 11.4811 116.899 11.6799 116.766 11.9403C116.638 12.196 116.572 12.5038 116.567 12.8636ZM131.282 8.09091V10.9318H124.094V8.09091H131.282ZM125.487 5.47727H129.407V15.4915C129.407 15.643 129.433 15.7708 129.485 15.875C129.537 15.9744 129.618 16.0502 129.727 16.1023C129.835 16.1496 129.975 16.1733 130.146 16.1733C130.264 16.1733 130.401 16.1591 130.558 16.1307C130.719 16.1023 130.837 16.0786 130.913 16.0597L131.481 18.8153C131.306 18.8674 131.055 18.9313 130.728 19.0071C130.406 19.0829 130.023 19.1326 129.577 19.1562C128.678 19.2036 127.923 19.1113 127.312 18.8793C126.701 18.6425 126.242 18.2708 125.934 17.7642C125.626 17.2576 125.477 16.6231 125.487 15.8608V5.47727ZM143.05 9C143.012 8.52652 142.835 8.1572 142.518 7.89205C142.205 7.62689 141.729 7.49432 141.09 7.49432C140.683 7.49432 140.349 7.54403 140.089 7.64347C139.833 7.73816 139.644 7.86837 139.52 8.03409C139.397 8.19981 139.333 8.3892 139.329 8.60227C139.319 8.77746 139.35 8.93608 139.421 9.07812C139.497 9.21544 139.615 9.34091 139.776 9.45455C139.937 9.56345 140.143 9.66288 140.394 9.75284C140.645 9.8428 140.943 9.9233 141.289 9.99432L142.482 10.25C143.287 10.4205 143.976 10.6454 144.549 10.9247C145.122 11.2041 145.59 11.5331 145.955 11.9119C146.32 12.286 146.587 12.7074 146.758 13.1761C146.933 13.6449 147.023 14.1562 147.028 14.7102C147.023 15.6667 146.784 16.4763 146.31 17.1392C145.837 17.8021 145.16 18.3063 144.279 18.652C143.403 18.9976 142.349 19.1705 141.118 19.1705C139.854 19.1705 138.751 18.9834 137.809 18.6094C136.871 18.2353 136.142 17.66 135.621 16.8835C135.105 16.1023 134.845 15.1032 134.84 13.8864H138.59C138.614 14.3314 138.725 14.7055 138.924 15.0085C139.123 15.3116 139.402 15.5412 139.762 15.6974C140.126 15.8537 140.56 15.9318 141.062 15.9318C141.483 15.9318 141.836 15.8797 142.12 15.7756C142.404 15.6714 142.619 15.527 142.766 15.3423C142.913 15.1577 142.989 14.947 142.993 14.7102C142.989 14.4877 142.915 14.2936 142.773 14.1278C142.636 13.9574 142.409 13.8059 142.091 13.6733C141.774 13.536 141.346 13.4081 140.806 13.2898L139.357 12.9773C138.069 12.6979 137.054 12.2315 136.31 11.5781C135.572 10.92 135.205 10.0227 135.209 8.88636C135.205 7.96307 135.451 7.15578 135.948 6.46449C136.45 5.76847 137.144 5.22633 138.029 4.83807C138.919 4.44981 139.939 4.25568 141.09 4.25568C142.264 4.25568 143.28 4.45218 144.137 4.84517C144.994 5.23816 145.654 5.79214 146.118 6.5071C146.587 7.21733 146.824 8.0483 146.829 9H143.05ZM147.786 19V8.09091H151.508V10.1648H151.622C151.849 9.48295 152.237 8.94318 152.786 8.54545C153.336 8.14773 153.989 7.94886 154.747 7.94886C155.514 7.94886 156.174 8.15246 156.728 8.55966C157.282 8.96212 157.616 9.49716 157.73 10.1648H157.843C158.028 9.49716 158.421 8.96212 159.022 8.55966C159.624 8.15246 160.329 7.94886 161.139 7.94886C162.185 7.94886 163.033 8.28504 163.681 8.95739C164.335 9.62973 164.661 10.5246 164.661 11.642V19H160.741V12.6364C160.741 12.1581 160.62 11.7841 160.379 11.5142C160.137 11.2396 159.813 11.1023 159.406 11.1023C159.003 11.1023 158.684 11.2396 158.447 11.5142C158.215 11.7841 158.099 12.1581 158.099 12.6364V19H154.349V12.6364C154.349 12.1581 154.228 11.7841 153.987 11.5142C153.745 11.2396 153.421 11.1023 153.014 11.1023C152.744 11.1023 152.512 11.1638 152.318 11.2869C152.124 11.41 151.972 11.5876 151.863 11.8196C151.759 12.0469 151.707 12.3191 151.707 12.6364V19H147.786ZM165.795 19V8.09091H169.716V19H165.795ZM167.755 6.95455C167.225 6.95455 166.77 6.77936 166.392 6.42898C166.013 6.0786 165.823 5.6572 165.823 5.16477C165.823 4.67235 166.013 4.25095 166.392 3.90057C166.77 3.55019 167.225 3.375 167.755 3.375C168.29 3.375 168.745 3.55019 169.119 3.90057C169.498 4.25095 169.687 4.67235 169.687 5.16477C169.687 5.6572 169.498 6.0786 169.119 6.42898C168.745 6.77936 168.29 6.95455 167.755 6.95455ZM174.833 4.45455V19H170.913V4.45455H174.833ZM181.258 19.1989C180.093 19.1989 179.09 18.9763 178.247 18.5312C177.409 18.0814 176.763 17.4375 176.308 16.5994C175.858 15.7566 175.633 14.7481 175.633 13.5739C175.633 12.447 175.861 11.4621 176.315 10.6193C176.77 9.77651 177.411 9.12074 178.24 8.65199C179.068 8.18324 180.046 7.94886 181.173 7.94886C181.997 7.94886 182.743 8.0767 183.41 8.33239C184.078 8.58807 184.648 8.95975 185.122 9.44744C185.595 9.9304 185.96 10.5175 186.216 11.2088C186.471 11.9001 186.599 12.679 186.599 13.5455V14.4545H176.855V12.2955H182.991C182.986 11.983 182.906 11.7083 182.75 11.4716C182.598 11.2301 182.392 11.0431 182.132 10.9105C181.876 10.7732 181.585 10.7045 181.258 10.7045C180.941 10.7045 180.65 10.7732 180.385 10.9105C180.12 11.0431 179.906 11.2277 179.745 11.4645C179.589 11.7012 179.506 11.9782 179.497 12.2955V14.625C179.497 14.9754 179.57 15.2879 179.717 15.5625C179.864 15.8371 180.075 16.0526 180.349 16.2088C180.624 16.3651 180.955 16.4432 181.343 16.4432C181.613 16.4432 181.86 16.4053 182.082 16.3295C182.309 16.2538 182.504 16.1449 182.665 16.0028C182.825 15.8561 182.944 15.6809 183.02 15.4773H186.599C186.476 16.2348 186.185 16.893 185.726 17.4517C185.266 18.0057 184.658 18.4366 183.9 18.7443C183.147 19.0473 182.267 19.1989 181.258 19.1989ZM80.4489 43H74.8523V28.4545H80.3921C81.8883 28.4545 83.1809 28.7457 84.2699 29.3281C85.3637 29.9058 86.2065 30.7391 86.7983 31.8281C87.3949 32.9124 87.6932 34.2121 87.6932 35.7273C87.6932 37.2424 87.3973 38.5445 86.8054 39.6335C86.2136 40.7178 85.3755 41.5511 84.2912 42.1335C83.2069 42.7112 81.9262 43 80.4489 43ZM78.8012 39.6477H80.3068C81.0265 39.6477 81.6397 39.5317 82.1463 39.2997C82.6577 39.0677 83.046 38.6676 83.3111 38.0994C83.581 37.5312 83.7159 36.7405 83.7159 35.7273C83.7159 34.714 83.5786 33.9233 83.304 33.3551C83.0341 32.7869 82.6364 32.3868 82.1108 32.1548C81.59 31.9228 80.9508 31.8068 80.1932 31.8068H78.8012V39.6477ZM94.0044 43.1989C92.8396 43.1989 91.8358 42.9763 90.993 42.5312C90.1549 42.0814 89.5086 41.4375 89.0541 40.5994C88.6043 39.7566 88.3794 38.7481 88.3794 37.5739C88.3794 36.447 88.6066 35.4621 89.0612 34.6193C89.5157 33.7765 90.1573 33.1207 90.9859 32.652C91.8145 32.1832 92.7922 31.9489 93.9191 31.9489C94.743 31.9489 95.4887 32.0767 96.1563 32.3324C96.824 32.5881 97.3945 32.9598 97.868 33.4474C98.3415 33.9304 98.7061 34.5175 98.9617 35.2088C99.2174 35.9001 99.3453 36.679 99.3453 37.5455V38.4545H89.6009V36.2955H95.7373C95.7326 35.983 95.6521 35.7083 95.4958 35.4716C95.3443 35.2301 95.1384 35.0431 94.8779 34.9105C94.6223 34.7732 94.3311 34.7045 94.0044 34.7045C93.6871 34.7045 93.3959 34.7732 93.1308 34.9105C92.8656 35.0431 92.6526 35.2277 92.4916 35.4645C92.3353 35.7012 92.2525 35.9782 92.243 36.2955V38.625C92.243 38.9754 92.3164 39.2879 92.4632 39.5625C92.6099 39.8371 92.8206 40.0526 93.0953 40.2088C93.3699 40.3651 93.7013 40.4432 94.0896 40.4432C94.3595 40.4432 94.6057 40.4053 94.8282 40.3295C95.0555 40.2538 95.2496 40.1449 95.4106 40.0028C95.5716 39.8561 95.69 39.6809 95.7657 39.4773H99.3453C99.2222 40.2348 98.931 40.893 98.4717 41.4517C98.0124 42.0057 97.404 42.4366 96.6464 42.7443C95.8936 43.0473 95.0129 43.1989 94.0044 43.1989ZM104.066 36.8636V43H100.145V32.0909H103.867V34.1648H103.98C104.217 33.4735 104.634 32.9313 105.23 32.5384C105.832 32.1454 106.532 31.9489 107.333 31.9489C108.104 31.9489 108.774 32.1264 109.342 32.4815C109.915 32.8319 110.358 33.3149 110.671 33.9304C110.988 34.5459 111.144 35.2491 111.139 36.0398V43H107.219V36.8636C107.224 36.3239 107.086 35.9001 106.807 35.5923C106.532 35.2846 106.149 35.1307 105.656 35.1307C105.334 35.1307 105.053 35.2017 104.811 35.3438C104.575 35.4811 104.392 35.6799 104.264 35.9403C104.137 36.196 104.07 36.5038 104.066 36.8636ZM118.78 32.0909V34.9318H111.593V32.0909H118.78ZM112.985 29.4773H116.905V39.4915C116.905 39.643 116.931 39.7708 116.984 39.875C117.036 39.9744 117.116 40.0502 117.225 40.1023C117.334 40.1496 117.474 40.1733 117.644 40.1733C117.762 40.1733 117.9 40.1591 118.056 40.1307C118.217 40.1023 118.335 40.0786 118.411 40.0597L118.979 42.8153C118.804 42.8674 118.553 42.9313 118.226 43.0071C117.904 43.0829 117.521 43.1326 117.076 43.1562C116.176 43.2036 115.421 43.1113 114.81 42.8793C114.199 42.6425 113.74 42.2708 113.432 41.7642C113.125 41.2576 112.975 40.6231 112.985 39.8608V29.4773ZM122.62 43.1705C121.924 43.1705 121.308 43.0568 120.773 42.8295C120.243 42.5975 119.826 42.2472 119.523 41.7784C119.22 41.3097 119.069 40.7131 119.069 39.9886C119.069 39.392 119.171 38.883 119.374 38.4616C119.578 38.0355 119.862 37.6875 120.227 37.4176C120.591 37.1477 121.015 36.9418 121.498 36.7997C121.986 36.6577 122.511 36.5653 123.075 36.5227C123.685 36.4754 124.175 36.4186 124.545 36.3523C124.919 36.2812 125.189 36.1842 125.354 36.0611C125.52 35.9332 125.603 35.7652 125.603 35.5568V35.5284C125.603 35.2443 125.494 35.0265 125.276 34.875C125.058 34.7235 124.779 34.6477 124.438 34.6477C124.064 34.6477 123.759 34.7306 123.522 34.8963C123.29 35.0573 123.15 35.3059 123.103 35.642H119.495C119.542 34.9792 119.753 34.3684 120.127 33.8097C120.506 33.2462 121.057 32.7964 121.782 32.4602C122.506 32.1193 123.411 31.9489 124.495 31.9489C125.276 31.9489 125.977 32.0412 126.597 32.2259C127.218 32.4058 127.745 32.6591 128.181 32.9858C128.617 33.3078 128.948 33.6866 129.175 34.1222C129.407 34.553 129.523 35.0218 129.523 35.5284V43H125.859V41.4659H125.773C125.556 41.8731 125.29 42.2022 124.978 42.4531C124.67 42.7041 124.317 42.8864 123.92 43C123.527 43.1136 123.093 43.1705 122.62 43.1705ZM123.898 40.6989C124.197 40.6989 124.476 40.6373 124.736 40.5142C125.002 40.3911 125.217 40.2135 125.383 39.9815C125.548 39.7495 125.631 39.4678 125.631 39.1364V38.2273C125.527 38.2699 125.416 38.3101 125.298 38.348C125.184 38.3859 125.061 38.4214 124.928 38.4545C124.8 38.4877 124.663 38.5185 124.516 38.5469C124.374 38.5753 124.225 38.6013 124.069 38.625C123.766 38.6723 123.517 38.7505 123.323 38.8594C123.134 38.9635 122.992 39.0938 122.897 39.25C122.807 39.4015 122.762 39.572 122.762 39.7614C122.762 40.0644 122.869 40.2964 123.082 40.4574C123.295 40.6184 123.567 40.6989 123.898 40.6989ZM134.517 28.4545V43H130.597V28.4545H134.517ZM152.422 33.9091H148.416C148.388 33.5777 148.312 33.277 148.189 33.0071C148.07 32.7372 147.905 32.5052 147.692 32.3111C147.483 32.1122 147.23 31.9607 146.932 31.8565C146.633 31.7476 146.295 31.6932 145.916 31.6932C145.253 31.6932 144.692 31.8542 144.233 32.1761C143.778 32.4981 143.433 32.9598 143.196 33.5611C142.964 34.1624 142.848 34.8845 142.848 35.7273C142.848 36.6174 142.966 37.3632 143.203 37.9645C143.444 38.5611 143.792 39.0109 144.247 39.3139C144.702 39.6122 145.248 39.7614 145.888 39.7614C146.252 39.7614 146.579 39.7164 146.868 39.6264C147.157 39.5317 147.407 39.3968 147.621 39.2216C147.834 39.0464 148.006 38.8357 148.139 38.5895C148.276 38.3385 148.369 38.0568 148.416 37.7443L152.422 37.7727C152.374 38.3883 152.202 39.0156 151.903 39.6548C151.605 40.2893 151.181 40.8764 150.632 41.4162C150.087 41.9512 149.413 42.3821 148.608 42.7088C147.803 43.0355 146.868 43.1989 145.802 43.1989C144.467 43.1989 143.269 42.9124 142.209 42.3395C141.153 41.7666 140.317 40.9238 139.702 39.8111C139.091 38.6984 138.785 37.3371 138.785 35.7273C138.785 34.108 139.098 32.7443 139.723 31.6364C140.348 30.5237 141.191 29.6832 142.251 29.1151C143.312 28.5421 144.496 28.2557 145.802 28.2557C146.721 28.2557 147.566 28.3812 148.338 28.6321C149.11 28.883 149.787 29.25 150.369 29.733C150.952 30.2112 151.42 30.8007 151.775 31.5014C152.13 32.2022 152.346 33.0047 152.422 33.9091ZM157.391 28.4545V43H153.47V28.4545H157.391ZM158.588 43V32.0909H162.508V43H158.588ZM160.548 30.9545C160.018 30.9545 159.563 30.7794 159.185 30.429C158.806 30.0786 158.616 29.6572 158.616 29.1648C158.616 28.6723 158.806 28.2509 159.185 27.9006C159.563 27.5502 160.018 27.375 160.548 27.375C161.083 27.375 161.538 27.5502 161.912 27.9006C162.291 28.2509 162.48 28.6723 162.48 29.1648C162.48 29.6572 162.291 30.0786 161.912 30.429C161.538 30.7794 161.083 30.9545 160.548 30.9545ZM167.626 36.8636V43H163.706V32.0909H167.428V34.1648H167.541C167.778 33.4735 168.195 32.9313 168.791 32.5384C169.393 32.1454 170.093 31.9489 170.893 31.9489C171.665 31.9489 172.335 32.1264 172.903 32.4815C173.476 32.8319 173.919 33.3149 174.232 33.9304C174.549 34.5459 174.705 35.2491 174.7 36.0398V43H170.78V36.8636C170.785 36.3239 170.647 35.9001 170.368 35.5923C170.093 35.2846 169.71 35.1307 169.217 35.1307C168.895 35.1307 168.614 35.2017 168.372 35.3438C168.135 35.4811 167.953 35.6799 167.825 35.9403C167.697 36.196 167.631 36.5038 167.626 36.8636ZM175.836 43V32.0909H179.756V43H175.836ZM177.796 30.9545C177.266 30.9545 176.811 30.7794 176.432 30.429C176.053 30.0786 175.864 29.6572 175.864 29.1648C175.864 28.6723 176.053 28.2509 176.432 27.9006C176.811 27.5502 177.266 27.375 177.796 27.375C178.331 27.375 178.785 27.5502 179.16 27.9006C179.538 28.2509 179.728 28.6723 179.728 29.1648C179.728 29.6572 179.538 30.0786 179.16 30.429C178.785 30.7794 178.331 30.9545 177.796 30.9545ZM186.209 43.1989C185.026 43.1989 184.012 42.9645 183.17 42.4957C182.327 42.0223 181.68 41.3641 181.231 40.5213C180.781 39.6738 180.556 38.6913 180.556 37.5739C180.556 36.4564 180.781 35.4763 181.231 34.6335C181.68 33.786 182.327 33.1278 183.17 32.6591C184.012 32.1856 185.026 31.9489 186.209 31.9489C187.279 31.9489 188.205 32.143 188.986 32.5312C189.772 32.9148 190.381 33.4593 190.812 34.1648C191.242 34.8655 191.46 35.6894 191.465 36.6364H187.829C187.777 36.0634 187.611 35.6278 187.331 35.3295C187.057 35.0265 186.702 34.875 186.266 34.875C185.925 34.875 185.627 34.9744 185.371 35.1733C185.116 35.3674 184.917 35.6634 184.775 36.0611C184.633 36.4541 184.562 36.9489 184.562 37.5455C184.562 38.142 184.633 38.6392 184.775 39.0369C184.917 39.4299 185.116 39.7259 185.371 39.9247C185.627 40.1188 185.925 40.2159 186.266 40.2159C186.555 40.2159 186.811 40.1496 187.033 40.017C187.256 39.8797 187.436 39.6809 187.573 39.4205C187.715 39.1553 187.8 38.8333 187.829 38.4545H191.465C191.451 39.4157 191.231 40.2538 190.804 40.9688C190.378 41.679 189.775 42.2282 188.993 42.6165C188.217 43.0047 187.289 43.1989 186.209 43.1989Z" fill="white"/>
</svg>
